<svg width="28" height="28" viewBox="0 0 28 28" fill="none" xmlns="http://www.w3.org/2000/svg">
<path d="M21.3734 4.35175L16.0184 1.90175C15.3862 1.60753 14.6973 1.45508 14 1.45508C13.3027 1.45508 12.6139 1.60753 11.9817 1.90175L6.62671 4.35175C5.78463 4.73794 5.07102 5.35762 4.57058 6.13723C4.07014 6.91685 3.80387 7.82367 3.80337 8.75009V17.3251C3.80094 18.0421 3.95893 18.7505 4.26577 19.3985C4.57261 20.0465 5.02053 20.6176 5.57671 21.0701L10.9317 25.4451C11.7971 26.1541 12.8813 26.5415 14 26.5415C15.1188 26.5415 16.203 26.1541 17.0684 25.4451L22.4234 21.0701C22.9796 20.6176 23.4275 20.0465 23.7343 19.3985C24.0411 18.7505 24.1991 18.0421 24.1967 17.3251V8.75009C24.1962 7.82367 23.9299 6.91685 23.4295 6.13723C22.9291 5.35762 22.2155 4.73794 21.3734 4.35175ZM22.4467 17.3251C22.4364 17.776 22.3265 18.2191 22.1248 18.6225C21.9231 19.0259 21.6346 19.3797 21.28 19.6584L15.925 24.0334C15.3714 24.4844 14.6791 24.7307 13.965 24.7307C13.2509 24.7307 12.5587 24.4844 12.005 24.0334L6.68504 19.7168C6.33047 19.438 6.04199 19.0842 5.84028 18.6808C5.63857 18.2774 5.52864 17.8343 5.51837 17.3834V8.75009C5.52306 8.15387 5.6994 7.57163 6.0263 7.07301C6.3532 6.57438 6.81682 6.18048 7.36171 5.93842L12.7167 3.50009C13.1194 3.31553 13.5571 3.21999 14 3.21999C14.443 3.21999 14.8807 3.31553 15.2834 3.50009L20.6384 5.95009C21.1749 6.19644 21.6301 6.59074 21.9504 7.0867C22.2707 7.58266 22.4429 8.1597 22.4467 8.75009V17.3251ZM16.94 12.3434L15.2484 14.0001L16.94 15.6568C17.1039 15.8208 17.1959 16.0432 17.1959 16.2751C17.1959 16.507 17.1039 16.7294 16.94 16.8934C16.8571 16.9756 16.7587 17.0405 16.6506 17.0846C16.5425 17.1286 16.4268 17.1509 16.31 17.1501C16.1978 17.1513 16.0864 17.1302 15.9822 17.0882C15.8781 17.0461 15.7833 16.9839 15.7034 16.9051L14 15.2251L12.2967 16.9051C12.1295 17.0629 11.9082 17.1505 11.6784 17.1501C11.5616 17.1509 11.4459 17.1286 11.3378 17.0846C11.2297 17.0405 11.1313 16.9756 11.0484 16.8934C10.8845 16.7294 10.7925 16.507 10.7925 16.2751C10.7925 16.0432 10.8845 15.8208 11.0484 15.6568L12.7517 14.0001L11.06 12.3434C10.8962 12.1794 10.8041 11.957 10.8041 11.7251C10.8041 11.4932 10.8962 11.2708 11.06 11.1068C11.2275 10.9449 11.4513 10.8545 11.6842 10.8545C11.9171 10.8545 12.1409 10.9449 12.3084 11.1068L14 12.8334L15.715 11.1534C15.7891 11.0454 15.8865 10.9554 16 10.8901C16.1135 10.8248 16.2403 10.7858 16.3709 10.7759C16.5015 10.7661 16.6326 10.7857 16.7546 10.8333C16.8766 10.8809 16.9864 10.9553 17.0758 11.051C17.1652 11.1467 17.232 11.2612 17.2713 11.3862C17.3106 11.5111 17.3213 11.6433 17.3026 11.7729C17.284 11.9026 17.2365 12.0264 17.1637 12.1352C17.0908 12.244 16.9945 12.3351 16.8817 12.4018L16.94 12.3434Z" fill="#F8285A"/>
</svg>
